<svg width="144" height="144" viewBox="0 0 144 144" fill="none" xmlns="http://www.w3.org/2000/svg">
<rect x="0.5" y="0.5" width="143" height="143" rx="39.5" fill="#0CCC83" stroke="black"/>
<path fill-rule="evenodd" clip-rule="evenodd" d="M93.5347 81.3302C92.3652 80.7476 86.6156 77.9319 85.5435 77.5436C84.4716 77.1553 83.6922 76.961 82.9125 78.1261C82.1329 79.2913 79.8917 81.9128 79.2094 82.6896C78.5273 83.4662 77.8452 83.5636 76.6757 82.9808C75.5063 82.3984 71.7382 81.1693 67.2714 77.2041C63.7948 74.1182 61.4478 70.3065 60.7655 69.1414C60.0834 67.9762 60.6929 67.3464 61.2785 66.7661C61.8044 66.2448 62.4478 65.4069 63.0325 64.7272C63.6172 64.0475 63.8122 63.5621 64.202 62.7854C64.5918 62.0086 64.3969 61.3289 64.1044 60.7463C63.8122 60.1638 61.4734 54.4352 60.4989 52.1049C59.5497 49.8355 58.5855 50.1425 57.8676 50.1069C57.1862 50.0731 56.4059 50.066 55.6263 50.066C54.8466 50.066 53.5798 50.3574 52.5077 51.5223C51.4357 52.6874 48.4147 55.5034 48.4147 61.2318C48.4147 66.9604 52.6052 72.4947 53.19 73.2715C53.7747 74.0484 61.4363 85.8041 73.1675 90.8454C75.9577 92.0445 78.1361 92.7605 79.8344 93.2972C82.636 94.1828 85.1854 94.0579 87.2004 93.7582C89.4472 93.4241 94.1194 90.9425 95.094 88.2239C96.0684 85.5053 96.0683 83.175 95.7761 82.6896C95.4838 82.2041 94.7042 81.9128 93.5347 81.3302ZM72.1966 110.325H72.1809C65.2004 110.323 58.354 108.457 52.3814 104.929L50.9608 104.09L36.2375 107.934L40.1675 93.6474L39.2424 92.1828C35.3484 86.0187 33.2918 78.8942 33.2947 71.5791C33.3033 50.2331 50.7544 32.8668 72.2121 32.8668C82.6026 32.8708 92.3698 36.9031 99.7144 44.2208C107.059 51.5386 111.102 61.2658 111.098 71.6104C111.089 92.9579 93.638 110.325 72.1966 110.325ZM105.304 38.6603C96.4679 29.8559 84.7164 25.0049 72.1961 24.9999C46.3988 24.9999 25.4029 45.894 25.3925 71.5762C25.3892 79.7857 27.5442 87.7994 31.6399 94.8627L25 119L49.8113 112.523C56.6474 116.234 64.3441 118.189 72.1775 118.193H72.1966H72.1968C97.9917 118.193 118.989 97.2958 119 71.6133C119.005 59.1674 114.141 47.4644 105.304 38.6603Z" fill="#F5FDFA"/>
</svg>
