<svg width="106" height="600" viewBox="0 0 106 600" fill="none" xmlns="http://www.w3.org/2000/svg">
<path fill-rule="evenodd" clip-rule="evenodd" d="M-2.57729 0.248245C17.2019 -1.93123 37.6435 10.4836 46.73 27.9264C54.626 43.0837 39.6263 58.6959 36.6089 75.4712C33.1863 94.4993 45.208 120.05 28.3747 129.974C11.493 139.926 -8.75591 123.121 -24.4942 111.492C-36.0376 102.963 -41.6694 90.026 -44.5406 76.0956C-47.298 62.7172 -46.3855 49.4428 -39.7537 37.4561C-30.8593 21.3798 -21.0484 2.28358 -2.57729 0.248245Z" fill="#0CCC83" fill-opacity="0.19"/>
<path fill-rule="evenodd" clip-rule="evenodd" d="M70.3575 212.219C75.7313 211.593 81.7153 212.151 85.5027 215.996C89.2692 219.819 89.1057 225.716 88.9244 231.067C88.7512 236.177 88.489 241.913 84.5148 245.154C80.7098 248.257 75.2615 246.597 70.3575 246.208C66.0487 245.867 61.8074 245.573 58.2871 243.078C53.989 240.03 48.9789 236.318 49.0001 231.067C49.0212 225.821 54.4395 222.632 58.3835 219.151C61.975 215.982 65.5895 212.773 70.3575 212.219Z" fill="#CFF3E5"/>
<path fill-rule="evenodd" clip-rule="evenodd" d="M-43.6828 405.815C-15.5768 396.49 16.0073 389.982 41.7699 404.578C73.792 422.72 113.196 454.144 104.871 489.978C96.3153 526.806 40.0197 520.764 9.56581 543.194C-12.037 559.105 -17.1597 595.31 -43.6828 599.39C-71.5752 603.681 -98.8121 584.688 -116.306 562.557C-132.188 542.465 -136.567 514.772 -130.172 489.978C-124.882 469.468 -101.723 461.924 -86.5392 447.148C-71.7526 432.759 -63.2699 412.314 -43.6828 405.815Z" fill="#70DAB1"/>
</svg>
