<svg width="80" height="376" viewBox="0 0 80 376" fill="none" xmlns="http://www.w3.org/2000/svg">
<path fill-rule="evenodd" clip-rule="evenodd" d="M90.5488 5.33544C102.827 3.9272 116.694 -4.59272 126.157 3.32827C135.677 11.2963 133.336 26.7394 130.541 38.8105C128.324 48.3857 120.31 54.612 112.806 60.9891C106.158 66.64 99.1443 71.233 90.5488 72.8019C79.5411 74.8112 67.5221 77.2656 58.3082 70.9368C47.8764 63.7714 40.2295 51.4083 41.062 38.8105C41.8667 26.633 52.1586 17.508 62.2916 10.6535C70.5362 5.07653 80.6493 6.4709 90.5488 5.33544Z" fill="#0CCC83" fill-opacity="0.3"/>
<path fill-rule="evenodd" clip-rule="evenodd" d="M21.1752 334.584C26.0965 335.574 28.8796 340.192 32.3784 343.808C35.7925 347.336 40.8148 350.147 40.9942 355.065C41.1763 360.054 37.0292 363.96 33.2311 367.179C29.8074 370.08 25.5443 370.871 21.1752 371.862C14.6741 373.337 7.01834 378.75 2.08863 374.243C-2.80694 369.768 2.38253 361.702 2.80084 355.065C3.17065 349.197 0.444414 342.538 4.36212 338.171C8.35002 333.726 15.3351 333.409 21.1752 334.584Z" fill="#0CCC83" fill-opacity="0.27"/>
</svg>
